<?xml version="1.0" encoding="UTF-8"?>
<svg xmlns="http://www.w3.org/2000/svg" width="22" height="22" viewBox="0 0 22 22" fill="none">
  <g clip-path="url(#clip0_72_1738)">
    <path fill-rule="evenodd" clip-rule="evenodd" d="M18.432 3.14719C16.4059 1.11878 13.7115 0.00118433 10.8409 0C4.92589 0 0.111909 4.81384 0.10954 10.7304C0.108728 12.6218 0.602795 14.4681 1.54193 16.0955L0.0195312 21.6562L5.70839 20.1639C7.27589 21.019 9.04064 21.4696 10.8365 21.4701H10.8411C16.7554 21.4701 21.5699 16.6559 21.5721 10.739C21.5733 7.87154 20.4581 5.1755 18.432 3.14719ZM10.8409 19.6578H10.8372C9.23676 19.6571 7.66713 19.227 6.29747 18.4145L5.97195 18.2211L2.59608 19.1067L3.49712 15.8153L3.28495 15.4779C2.39211 14.0577 1.92061 12.4164 1.92142 10.7311C1.92328 5.81335 5.92461 1.81242 10.8445 1.81242C13.2269 1.8132 15.4664 2.74215 17.1503 4.42809C18.8343 6.11403 19.7611 8.35501 19.7603 10.7383C19.7582 15.6564 15.7572 19.6578 10.8409 19.6578ZM15.7334 12.9776C15.4653 12.8433 14.1469 12.1948 13.9011 12.1052C13.6555 12.0157 13.4765 11.9712 13.298 12.2395C13.1191 12.5078 12.6053 13.1119 12.4488 13.2907C12.2923 13.4697 12.1361 13.4921 11.8679 13.3579C11.5997 13.2237 10.7358 12.9404 9.71154 12.027C8.91449 11.316 8.3764 10.4379 8.2199 10.1696C8.06367 9.901 8.21855 9.76987 8.33752 9.62234C8.62778 9.2619 8.91845 8.884 9.00782 8.70516C9.09729 8.52616 9.05248 8.36956 8.98535 8.23539C8.91845 8.10123 8.38222 6.78141 8.15883 6.24437C7.94101 5.72175 7.72012 5.7923 7.55543 5.78414C7.3992 5.77633 7.22037 5.77474 7.04153 5.77474C6.8628 5.77474 6.57227 5.84174 6.32644 6.11034C6.08071 6.37881 5.38811 7.02742 5.38811 8.34723C5.38811 9.66704 6.34891 10.942 6.48294 11.121C6.61694 11.3 8.37376 14.0083 11.0635 15.1697C11.7032 15.4462 12.2026 15.611 12.5921 15.7346C13.2345 15.9387 13.8189 15.9099 14.281 15.8408C14.7962 15.7638 15.8673 15.1921 16.0909 14.5658C16.3143 13.9395 16.3143 13.4027 16.2471 13.2907C16.1803 13.1789 16.0014 13.1119 15.7334 12.9776Z" fill="black"></path>
  </g>
  <defs>
    <clipPath id="clip0_72_1738">
      <rect width="22" height="22" fill="white"></rect>
    </clipPath>
  </defs>
</svg>
